<svg xmlns="http://www.w3.org/2000/svg" xmlns:xlink="http://www.w3.org/1999/xlink" width="123" zoomAndPan="magnify" viewBox="0 0 92.25 86.999996" height="116" preserveAspectRatio="xMidYMid meet" version="1.0"><defs><clipPath id="2b5c1295db"><path d="M 0 0.351562 L 91.507812 0.351562 L 91.507812 86.648438 L 0 86.648438 Z M 0 0.351562 " clip-rule="nonzero"/></clipPath><clipPath id="25a68fb026"><path d="M 21.140625 10.820312 L 70.242188 10.820312 L 70.242188 77.777344 L 21.140625 77.777344 Z M 21.140625 10.820312 " clip-rule="nonzero"/></clipPath></defs><g clip-path="url(#2b5c1295db)"><path fill="#ffffff" d="M -6.589844 36.945312 C -6.589844 14.8125 -6.589844 3.746094 0.285156 -3.128906 C 7.164062 -10.003906 18.230469 -10.003906 40.363281 -10.003906 L 59.925781 -10.003906 C 82.058594 -10.003906 93.125 -10.003906 100 -3.128906 C 106.875 3.746094 106.875 14.8125 106.875 36.945312 L 106.875 56.507812 C 106.875 78.640625 106.875 89.707031 100 96.582031 C 93.125 103.457031 82.058594 103.457031 59.925781 103.457031 L 40.363281 103.457031 C 18.230469 103.457031 7.164062 103.457031 0.285156 96.582031 C -6.589844 89.707031 -6.589844 78.640625 -6.589844 56.507812 Z M -6.589844 36.945312 " fill-opacity="1" fill-rule="nonzero"/></g><path fill="#ffffff" d="M 84.128906 40.164062 L 65.382812 21.414062 L 46.632812 40.164062 L 65.382812 58.910156 Z M 84.128906 40.164062 " fill-opacity="1" fill-rule="nonzero"/><path fill="#ffffff" d="M 40.320312 21.414062 L 25.742188 21.414062 L 25.742188 77.066406 L 40.320312 77.066406 Z M 40.320312 21.414062 " fill-opacity="1" fill-rule="nonzero"/><g clip-path="url(#25a68fb026)"><path fill="#5e17eb" d="M 70.34375 27.097656 L 32.96875 27.097656 L 32.96875 11.507812 C 32.96875 11.128906 33.277344 10.820312 33.652344 10.820312 L 51.71875 10.820312 C 61.203125 10.820312 69.105469 17.9375 70.34375 27.097656 Z M 49.828125 59.535156 L 50.234375 53.226562 C 50.234375 52.847656 49.925781 52.539062 49.546875 52.542969 L 33.957031 52.59375 L 33.074219 78 C 42.257812 76.953125 49.859375 69.019531 49.828125 59.535156 Z M 21.144531 47.957031 L 54.757812 47.957031 C 63.367188 47.957031 70.347656 40.976562 70.347656 32.367188 C 70.347656 31.988281 70.039062 31.679688 69.660156 31.679688 L 39.769531 31.679688 C 30.285156 31.679688 22.386719 38.796875 21.144531 47.957031 Z M 21.144531 47.957031 " fill-opacity="1" fill-rule="nonzero"/></g></svg>