<svg xmlns="http://www.w3.org/2000/svg" xmlns:xlink="http://www.w3.org/1999/xlink" width="506" zoomAndPan="magnify" viewBox="0 0 379.5 79.499998" height="106" preserveAspectRatio="xMidYMid meet" version="1.0"><defs><clipPath id="e07eed4207"><path d="M 9 0.617188 L 88 0.617188 L 88 78.132812 L 9 78.132812 Z M 9 0.617188 " clip-rule="nonzero"/></clipPath><clipPath id="4895b16dc3"><path d="M 29.703125 12.257812 L 69.949219 12.257812 L 69.949219 66.664062 L 29.703125 66.664062 Z M 29.703125 12.257812 " clip-rule="nonzero"/></clipPath></defs><g clip-path="url(#e07eed4207)"><path fill="#4592ff" d="M 9.910156 32.792969 C 9.910156 17.625 9.910156 10.042969 14.621094 5.332031 C 19.332031 0.617188 26.917969 0.617188 42.082031 0.617188 L 55.488281 0.617188 C 70.65625 0.617188 78.242188 0.617188 82.953125 5.332031 C 87.664062 10.042969 87.664062 17.625 87.664062 32.792969 L 87.664062 46.199219 C 87.664062 61.367188 87.664062 68.953125 82.953125 73.664062 C 78.242188 78.375 70.65625 78.375 55.488281 78.375 L 42.082031 78.375 C 26.917969 78.375 19.332031 78.375 14.621094 73.664062 C 9.910156 68.953125 9.910156 61.367188 9.910156 46.199219 Z M 9.910156 32.792969 " fill-opacity="1" fill-rule="nonzero"/></g><path fill="#4592ff" d="M 72.078125 35 L 59.230469 22.152344 L 46.382812 35 L 59.230469 47.847656 Z M 72.078125 35 " fill-opacity="1" fill-rule="nonzero"/><path fill="#4592ff" d="M 42.054688 22.152344 L 32.0625 22.152344 L 32.0625 60.289062 L 42.054688 60.289062 Z M 42.054688 22.152344 " fill-opacity="1" fill-rule="nonzero"/><g clip-path="url(#4895b16dc3)"><path fill="#ffffff" d="M 69.597656 25.453125 L 39.292969 25.453125 L 39.292969 12.816406 C 39.292969 12.507812 39.542969 12.257812 39.851562 12.257812 L 54.496094 12.257812 C 62.1875 12.257812 68.59375 18.027344 69.597656 25.453125 Z M 52.964844 51.757812 L 53.292969 46.640625 C 53.292969 46.335938 53.042969 46.085938 52.734375 46.085938 L 40.097656 46.128906 L 39.378906 66.726562 C 46.828125 65.878906 52.988281 59.445312 52.964844 51.757812 Z M 29.707031 42.367188 L 56.960938 42.367188 C 63.941406 42.367188 69.601562 36.707031 69.601562 29.726562 C 69.601562 29.421875 69.351562 29.171875 69.042969 29.171875 L 44.808594 29.171875 C 37.121094 29.171875 30.714844 34.941406 29.707031 42.367188 Z M 29.707031 42.367188 " fill-opacity="1" fill-rule="nonzero"/></g><path fill="#4592ff" d="M 123.238281 49.738281 L 123.238281 49.898438 C 142.351562 51.328125 149.984375 43.9375 149.984375 31.855469 C 149.984375 19.335938 141.636719 14.128906 128.285156 14.921875 L 128.285156 15.082031 C 133.96875 15.398438 138.894531 21.601562 138.894531 32.488281 C 138.894531 41.511719 135.277344 50.136719 123.238281 49.738281 Z M 104.078125 72.550781 L 125.105469 72.550781 L 125.105469 72.394531 C 121.527344 71.597656 119.261719 69.171875 119.261719 65.199219 L 119.261719 22.277344 C 119.261719 18.300781 121.128906 15.875 124.308594 15.082031 L 124.308594 14.921875 L 104.078125 14.921875 L 104.078125 15.082031 C 107.257812 15.875 109.128906 18.300781 109.128906 22.277344 L 109.128906 65.199219 C 109.128906 69.171875 107.257812 71.597656 104.078125 72.394531 Z M 104.078125 72.550781 " fill-opacity="1" fill-rule="nonzero"/><path fill="#4592ff" d="M 160.667969 25.566406 C 164.085938 25.566406 166.828125 22.824219 166.828125 19.367188 C 166.828125 15.949219 164.085938 13.207031 160.667969 13.207031 C 157.207031 13.207031 154.464844 15.949219 154.464844 19.367188 C 154.464844 22.824219 157.207031 25.566406 160.667969 25.566406 Z M 150.96875 36.496094 C 154.546875 37.089844 156.414062 39.117188 156.414062 43.96875 L 156.414062 65.230469 C 156.414062 69.203125 154.507812 71.589844 151.328125 72.382812 L 151.328125 72.542969 L 171.039062 72.542969 L 171.039062 72.382812 C 167.859375 71.589844 165.953125 69.203125 165.953125 65.230469 L 165.953125 32.003906 C 161.0625 33.871094 156.652344 35.144531 150.96875 36.335938 Z M 150.96875 36.496094 " fill-opacity="1" fill-rule="nonzero"/><path fill="#4592ff" d="M 172.667969 72.390625 L 172.667969 72.546875 L 192.378906 72.546875 L 192.378906 72.390625 C 189.199219 71.59375 187.292969 69.210938 187.292969 65.234375 L 187.292969 8.957031 C 182.40625 10.824219 177.992188 12.097656 172.308594 13.289062 L 172.308594 13.449219 C 175.886719 14.042969 177.753906 16.070312 177.753906 20.921875 L 177.753906 65.234375 C 177.753906 69.210938 175.847656 71.59375 172.667969 72.390625 Z M 190.789062 53.511719 L 190.871094 53.628906 C 192.460938 54.027344 193.929688 57.007812 197.90625 63.726562 C 200.488281 68.097656 203.03125 72.867188 209.75 72.867188 C 213.324219 72.867188 217.738281 71.515625 220.042969 69.6875 L 219.921875 69.527344 C 219.046875 69.925781 218.175781 70.242188 217.101562 70.242188 C 214.320312 70.242188 211.972656 67.539062 205.773438 57.882812 C 201.085938 50.609375 199.414062 47.90625 199.574219 45.679688 L 199.453125 45.5625 Z M 198.144531 32.964844 C 202.632812 33.796875 206.570312 38.289062 202.4375 42.898438 L 202.59375 43.019531 C 206.847656 38.566406 211.933594 34.832031 216.941406 32.964844 L 216.941406 32.804688 L 198.144531 32.804688 Z M 198.144531 32.964844 " fill-opacity="1" fill-rule="nonzero"/><path fill="#4592ff" d="M 235.742188 72.640625 L 235.742188 72.796875 C 241.226562 72.597656 247.628906 70.136719 247.628906 62.742188 C 247.628906 55.429688 240.988281 51.136719 236.101562 47.800781 C 229.980469 43.625 226.640625 40.683594 226.640625 37.148438 C 226.640625 34.566406 228.3125 33.015625 231.214844 32.578125 L 231.214844 32.417969 C 225.726562 32.617188 219.328125 35.519531 219.328125 42.753906 C 219.328125 48.671875 223.582031 53.046875 230.019531 57.496094 C 235.941406 61.589844 240.234375 64.414062 240.234375 68.308594 C 240.234375 70.851562 238.644531 72.203125 235.742188 72.640625 Z M 218.574219 56.542969 C 219.25 61.910156 219.328125 67.871094 218.8125 72.121094 L 218.972656 72.203125 C 221.953125 70.890625 226.640625 72.320312 232.167969 72.796875 L 232.167969 72.640625 C 225.210938 70.96875 221.394531 62.625 218.734375 56.464844 Z M 234.390625 32.617188 C 240.910156 34.804688 243.972656 42.992188 246.433594 48.554688 L 246.59375 48.476562 C 245.878906 42.949219 245.441406 37.070312 245.957031 32.894531 L 245.800781 32.816406 C 243.535156 34.605469 239.398438 32.855469 234.390625 32.457031 Z M 234.390625 32.617188 " fill-opacity="1" fill-rule="nonzero"/><path fill="#4592ff" d="M 271.726562 72.875 C 282.773438 72.957031 287.621094 65.839844 288.617188 62.382812 L 288.457031 62.34375 C 286.707031 66.515625 281.621094 71.523438 275.144531 71.523438 C 266.71875 71.523438 262.542969 63.140625 262.464844 51.734375 C 262.425781 41.757812 265.804688 33.53125 270.253906 32.65625 L 270.253906 32.496094 C 259.363281 32.894531 251.535156 41.796875 251.8125 53.957031 C 252.09375 65.921875 260.199219 72.796875 271.726562 72.875 Z M 266.441406 50.738281 L 289.371094 50.539062 C 289.09375 40.523438 283.210938 32.972656 273.832031 32.496094 L 273.832031 32.65625 C 276.8125 33.769531 279 37.941406 279.117188 43.109375 C 279.199219 48.15625 277.210938 49.824219 266.441406 50.578125 Z M 266.441406 50.738281 " fill-opacity="1" fill-rule="nonzero"/><path fill="#4592ff" d="M 292.195312 72.398438 L 292.195312 72.558594 L 312.902344 72.558594 L 312.902344 72.398438 C 309.324219 71.605469 307.019531 69.21875 307.019531 65.246094 L 307.019531 32.21875 C 302.128906 34.085938 297.519531 35.359375 291.835938 36.550781 L 291.835938 36.707031 C 295.414062 37.304688 297.28125 39.332031 297.28125 44.179688 L 297.28125 65.246094 C 297.28125 69.21875 295.375 71.605469 292.195312 72.398438 Z M 309.402344 42.710938 L 309.5625 42.75 C 310.792969 39.929688 311.867188 38.972656 313.417969 38.972656 C 316 38.972656 319.140625 42.589844 319.617188 48.117188 L 319.777344 48.15625 C 321.566406 42.988281 323.234375 38.894531 324.945312 34.683594 C 323.273438 33.449219 321.007812 32.296875 318.625 32.296875 C 314.570312 32.296875 311.230469 35.714844 309.402344 42.710938 Z M 309.402344 42.710938 " fill-opacity="1" fill-rule="nonzero"/><path fill="#4592ff" d="M 353.664062 72.835938 C 357.199219 72.835938 360.695312 71.523438 363.003906 69.738281 L 362.921875 69.578125 C 358.191406 71.605469 356.207031 68.664062 356.207031 62.660156 C 356.207031 55.746094 356.523438 50.539062 356.523438 44.222656 C 356.523438 34.125 351.238281 32.496094 347.066406 32.496094 C 345.195312 32.496094 343.6875 32.816406 342.691406 33.09375 L 342.734375 33.25 C 346.785156 32.855469 346.667969 37.105469 346.667969 44.339844 C 346.667969 51.136719 346.347656 57.257812 346.347656 63.695312 C 346.347656 68.703125 347.222656 72.835938 353.664062 72.835938 Z M 323.457031 62.941406 C 323.457031 69.339844 328.066406 72.875 334.148438 72.875 C 339.035156 72.875 342.335938 70.570312 343.886719 69.140625 L 343.804688 68.980469 C 342.574219 69.816406 341.0625 70.492188 339.59375 70.492188 C 336.136719 70.492188 334.109375 66.753906 334.109375 61.945312 C 334.109375 56.304688 336.769531 50.859375 343.089844 49.625 L 343.089844 49.46875 C 335.023438 49.746094 323.457031 52.605469 323.457031 62.941406 Z M 327.191406 48.433594 L 327.351562 48.511719 C 330.808594 41.121094 334.625 35.636719 339.195312 33.925781 L 339.15625 33.769531 C 335.617188 34.484375 331.167969 34.882812 327.988281 32.933594 L 327.828125 33.011719 C 328.585938 37.386719 328.464844 42.511719 327.191406 48.433594 Z M 327.191406 48.433594 " fill-opacity="1" fill-rule="nonzero"/></svg>
